<?xml version="1.0" encoding="UTF-8" standalone="no"?>
<!-- Created with Inkscape (http://www.inkscape.org/) -->

<svg
   xmlns:dc="http://purl.org/dc/elements/1.1/"
   xmlns:cc="http://creativecommons.org/ns#"
   xmlns:rdf="http://www.w3.org/1999/02/22-rdf-syntax-ns#"
   xmlns:svg="http://www.w3.org/2000/svg"
   xmlns="http://www.w3.org/2000/svg"
   xmlns:sodipodi="http://sodipodi.sourceforge.net/DTD/sodipodi-0.dtd"
   xmlns:inkscape="http://www.inkscape.org/namespaces/inkscape"
   width="80mm"
   height="130mm"
   viewBox="0 0 80.000003 130"
   version="1.1"
   id="svg8"
   inkscape:version="0.92.4 (5da689c313, 2019-01-14)"
   sodipodi:docname="Dificil.svg">
  <defs
     id="defs2" />
  <sodipodi:namedview
     id="base"
     pagecolor="#ffffff"
     bordercolor="#666666"
     borderopacity="1.0"
     inkscape:pageopacity="0.0"
     inkscape:pageshadow="2"
     inkscape:zoom="0.7"
     inkscape:cx="54.046835"
     inkscape:cy="246.88813"
     inkscape:document-units="mm"
     inkscape:current-layer="layer1"
     showgrid="false"
     inkscape:window-width="1366"
     inkscape:window-height="715"
     inkscape:window-x="-8"
     inkscape:window-y="-8"
     inkscape:window-maximized="1" />
  <metadata
     id="metadata5">
    <rdf:RDF>
      <cc:Work
         rdf:about="">
        <dc:format>image/svg+xml</dc:format>
        <dc:type
           rdf:resource="http://purl.org/dc/dcmitype/StillImage" />
        <dc:title></dc:title>
      </cc:Work>
    </rdf:RDF>
  </metadata>
  <g
     inkscape:label="Capa 1"
     inkscape:groupmode="layer"
     id="layer1"
     transform="translate(-89.164218,-84.032154)">
    <path
       style="fill:#000000;stroke-width:0.61919963"
       d="m 102.96085,123.37524 -0.38533,-6.74616 -3.568484,-5.685 -3.568469,-5.685 5.591933,-2.10565 c 3.0756,-1.15811 5.96868,-2.41335 6.4291,-2.78941 0.46041,-0.376057 2.40485,-2.774565 4.32098,-5.33 1.91612,-2.555435 3.70369,-4.64626 3.97239,-4.64626 0.26868,0 2.18663,2.300062 4.26208,5.111237 l 3.77357,5.111233 6.10973,2.33178 6.10972,2.33178 -3.53661,5.63423 -3.53663,5.63423 -0.40977,6.78958 c -0.22538,3.73426 -0.55017,6.78957 -0.72177,6.78957 -0.1716,0 -2.95875,-0.74783 -6.19368,-1.66185 l -5.88168,-1.66184 -5.88169,1.66184 c -3.23492,0.91402 -6.02082,1.66185 -6.19087,1.66185 -0.17006,0 -0.48259,-3.03578 -0.69452,-6.74616 z m 8.07235,2.83579 4.65989,-1.3469 5.10987,1.44601 c 2.81043,0.7953 5.222,1.32589 5.35904,1.17909 0.13704,-0.1468 0.44336,-2.859 0.68069,-6.02712 0.4123,-5.5036 0.56079,-5.96588 3.33324,-10.37753 1.59593,-2.53954 2.9017,-4.71441 2.9017,-4.83305 0,-0.11863 -2.29796,-1.06892 -5.10659,-2.11175 -4.94277,-1.83522 -5.21628,-2.04403 -8.52529,-6.508415 -1.88028,-2.536795 -3.5533,-4.612353 -3.71782,-4.612353 -0.16453,0 -1.83755,2.075558 -3.71782,4.612353 -3.30902,4.464385 -3.58253,4.673195 -8.52529,6.508415 -2.80864,1.04283 -5.106598,1.99312 -5.106598,2.11175 0,0.11864 1.346091,2.35258 2.991318,4.96432 1.88197,2.98754 2.99133,5.4375 2.99133,6.60614 0,4.09867 0.80517,9.73595 1.39059,9.73595 0.34202,0 2.71881,-0.60612 5.28174,-1.34691 z"
       id="path34"
       inkscape:connector-curvature="0" />
    <path
       style="fill:#000000;stroke-width:0.61919969"
       d="m 132.9471,160.85568 -0.38533,-6.74616 -3.56849,-5.685 -3.56849,-5.685 5.59196,-2.10565 c 3.0756,-1.15811 5.96868,-2.41335 6.4291,-2.78941 0.46041,-0.37606 2.40485,-2.77458 4.32098,-5.33003 1.91612,-2.55545 3.70369,-4.64628 3.97239,-4.64628 0.26868,0 2.18663,2.30007 4.26208,5.11126 l 3.77357,5.11126 6.10973,2.33178 6.10972,2.33178 -3.53661,5.63423 -3.53663,5.63423 -0.40977,6.78958 c -0.22538,3.73426 -0.55017,6.78957 -0.72177,6.78957 -0.1716,0 -2.95875,-0.74783 -6.19368,-1.66185 l -5.88168,-1.66184 -5.88169,1.66184 c -3.23492,0.91402 -6.02082,1.66185 -6.19087,1.66185 -0.17006,0 -0.48259,-3.03578 -0.69452,-6.74616 z m 8.07235,2.83579 4.65989,-1.3469 5.10987,1.44601 c 2.81043,0.7953 5.222,1.32589 5.35904,1.17909 0.13704,-0.1468 0.44336,-2.859 0.68069,-6.02712 0.4123,-5.5036 0.56079,-5.96588 3.33324,-10.37753 1.59593,-2.53954 2.9017,-4.71441 2.9017,-4.83305 0,-0.11863 -2.29796,-1.06892 -5.10659,-2.11175 -4.94277,-1.83522 -5.21628,-2.04403 -8.52529,-6.50843 -1.88028,-2.53681 -3.5533,-4.61238 -3.71782,-4.61238 -0.16453,0 -1.83755,2.07557 -3.71782,4.61238 -3.30902,4.4644 -3.58253,4.67321 -8.52529,6.50843 -2.80864,1.04283 -5.10661,1.99312 -5.10661,2.11175 0,0.11864 1.3461,2.35258 2.99133,4.96432 1.88197,2.98754 2.99133,5.4375 2.99133,6.60614 0,4.09867 0.80517,9.73595 1.39059,9.73595 0.34202,0 2.71881,-0.60612 5.28174,-1.34691 z"
       id="path34-5"
       inkscape:connector-curvature="0" />
    <path
       style="fill:#000000;stroke-width:0.61919969"
       d="m 103.38926,197.44386 -0.38533,-6.74616 -3.568485,-5.685 -3.56847,-5.685 5.591935,-2.10564 c 3.0756,-1.1581 5.96868,-2.41334 6.4291,-2.78939 0.46041,-0.37606 2.40485,-2.77457 4.32098,-5.33001 1.91612,-2.55543 3.70369,-4.64626 3.97239,-4.64626 0.26868,0 2.18663,2.30007 4.26208,5.11124 l 3.77357,5.11123 6.10973,2.33177 6.10972,2.33177 -3.53661,5.63423 -3.53663,5.63423 -0.40977,6.78958 c -0.22538,3.73426 -0.55017,6.78957 -0.72177,6.78957 -0.1716,0 -2.95875,-0.74783 -6.19368,-1.66185 l -5.88168,-1.66184 -5.88169,1.66184 c -3.23492,0.91402 -6.02082,1.66185 -6.19087,1.66185 -0.17006,0 -0.48259,-3.03578 -0.69452,-6.74616 z m 8.07235,2.83579 4.65989,-1.3469 5.10987,1.44601 c 2.81043,0.7953 5.222,1.32589 5.35904,1.17909 0.13704,-0.1468 0.44336,-2.859 0.68069,-6.02712 0.4123,-5.5036 0.56079,-5.96588 3.33324,-10.37753 1.59593,-2.53954 2.9017,-4.71441 2.9017,-4.83305 0,-0.11863 -2.29796,-1.06892 -5.10659,-2.11174 -4.94277,-1.83521 -5.21628,-2.04402 -8.52529,-6.5084 -1.88028,-2.5368 -3.5533,-4.61235 -3.71782,-4.61235 -0.16453,0 -1.83755,2.07555 -3.71782,4.61235 -3.30902,4.46438 -3.58253,4.67319 -8.52529,6.5084 -2.80864,1.04282 -5.106595,1.99311 -5.106595,2.11174 0,0.11864 1.346085,2.35258 2.991315,4.96432 1.88197,2.98754 2.99133,5.4375 2.99133,6.60614 0,4.09867 0.80517,9.73595 1.39059,9.73595 0.34202,0 2.71881,-0.60612 5.28174,-1.34691 z"
       id="path34-3"
       inkscape:connector-curvature="0" />
  </g>
</svg>
