<?xml version="1.0" encoding="UTF-8" standalone="no"?>
<!-- Created with Inkscape (http://www.inkscape.org/) -->

<svg
   xmlns:dc="http://purl.org/dc/elements/1.1/"
   xmlns:cc="http://creativecommons.org/ns#"
   xmlns:rdf="http://www.w3.org/1999/02/22-rdf-syntax-ns#"
   xmlns:svg="http://www.w3.org/2000/svg"
   xmlns="http://www.w3.org/2000/svg"
   xmlns:sodipodi="http://sodipodi.sourceforge.net/DTD/sodipodi-0.dtd"
   xmlns:inkscape="http://www.inkscape.org/namespaces/inkscape"
   width="210mm"
   height="297mm"
   viewBox="0 0 210 297"
   version="1.1"
   id="svg8"
   inkscape:version="0.92.4 (5da689c313, 2019-01-14)"
   sodipodi:docname="dosjugadores.svg">
  <defs
     id="defs2">
    <clipPath
       id="clipEmfPath1">
      <path
         id="path3713"
         d="M0 0 238.502 0 238.502 130.371 0 130.371Z" />
    </clipPath>
    <pattern
       overflow="hidden"
       id="EMFhbasepattern"
       patternUnits="userSpaceOnUse"
       height="6"
       width="6" />
    <clipPath
       id="clipEmfPath1-5">
      <path
         id="path3738"
         d="M0 0 238.502 0 238.502 130.371 0 130.371Z" />
    </clipPath>
    <pattern
       overflow="hidden"
       id="EMFhbasepattern-6"
       patternUnits="userSpaceOnUse"
       height="6"
       width="6" />
  </defs>
  <sodipodi:namedview
     id="base"
     pagecolor="#ffffff"
     bordercolor="#666666"
     borderopacity="1.0"
     inkscape:pageopacity="0.0"
     inkscape:pageshadow="2"
     inkscape:zoom="0.35"
     inkscape:cx="186.2755"
     inkscape:cy="672.12491"
     inkscape:document-units="mm"
     inkscape:current-layer="layer1-3"
     showgrid="false"
     inkscape:window-width="1366"
     inkscape:window-height="715"
     inkscape:window-x="-8"
     inkscape:window-y="-8"
     inkscape:window-maximized="1" />
  <metadata
     id="metadata5">
    <rdf:RDF>
      <cc:Work
         rdf:about="">
        <dc:format>image/svg+xml</dc:format>
        <dc:type
           rdf:resource="http://purl.org/dc/dcmitype/StillImage" />
        <dc:title></dc:title>
      </cc:Work>
    </rdf:RDF>
  </metadata>
  <g
     inkscape:label="Capa 1"
     inkscape:groupmode="layer"
     id="layer1">
    <style
       id="style10">
.MsftOfcThm_Background1_lumMod_65_Fill {
 fill:#A6A6A6; 
}
</style>
    <g
       transform="matrix(0.26458333,0,0,0.26458333,54.399783,84.496819)"
       id="layer1-3">
      <path
         style="fill:#000000;stroke-width:3.34470797"
         d="m -178.13516,535.71119 c -4.15559,-13.0931 -2.47932,-61.26749 2.73677,-78.65181 18.60956,-62.02235 63.10322,-106.18578 118.795536,-117.91373 11.185261,-2.35544 62.823604,-3.73249 139.967013,-3.73249 H 205.60681 l 26.56158,13.81886 c 32.80536,17.06724 62.58578,46.09914 76.70289,74.775 9.71213,19.72815 10.15148,22.52831 10.8005,68.83517 l 0.67652,48.2705 -248.112351,0.85755 -248.112399,0.85754 z M 314.80868,491.69808 C 313.61759,450.93803 312.71646,445.66287 303.80993,427.31246 291.02841,400.9782 260.0186,370.6546 229.45724,354.60505 l -23.96008,-12.58282 -123.188625,-0.796 c -132.386993,-0.85544 -140.485084,-0.0233 -175.917856,18.05199 -50.144659,25.58189 -88.443019,100.48114 -81.164969,158.7325 l 2.25955,18.0849 H 71.795683 316.10609 Z m 47.26484,48.57844 c -0.84675,-1.3797 -3.26545,-24.7096 -5.37481,-51.84425 -2.10941,-27.13465 -6.00449,-56.48445 -8.65578,-65.2218 -11.41835,-37.62953 -8.39925,-39.2471 68.33188,-36.61047 56.54363,1.94294 59.10769,2.34006 79.30454,12.28295 26.24107,12.91842 51.83169,40.14285 61.15356,65.05783 10.02818,26.80262 12.81541,58.05239 10.70481,69.71378 l -3.4714,9.13047 H 463.8397 c -55.12467,0 -100.91943,-1.12883 -101.76618,-2.50851 z m 200.88061,-9.88312 c 3.05837,-7.96996 -7.20527,-55.19172 -15.89943,-73.1515 -9.87139,-20.39148 -32.87507,-42.54519 -55.9367,-53.86969 -18.49309,-9.08115 -21.37205,-9.46921 -78.54571,-10.58739 -68.68361,-1.34326 -66.32018,-2.57619 -58.08888,30.3029 2.89544,11.56567 6.12496,36.83219 7.17664,56.14788 1.05168,19.31568 2.65329,40.01106 3.55909,45.98973 l 1.64698,10.87029 h 96.94993 c 88.26979,0 97.14584,-0.51053 99.13808,-5.70222 z M 340.12053,292.37566 c -24.03125,-9.69785 -37.76576,-19.26619 -54.91099,-38.25448 -24.30837,-26.92142 -27.92279,-37.60376 -28.00869,-82.77819 -0.0673,-35.35 0.69704,-40.19616 8.9666,-56.86002 12.92444,-26.043806 38.61946,-50.583626 62.97482,-60.143537 16.25578,-6.380699 26.48872,-7.874278 55.08403,-8.039974 32.86741,-0.190314 36.26777,0.432536 53.0276,9.71564 29.21606,16.182499 45.95301,33.220742 59.44017,60.510111 11.14851,22.55749 12.27467,27.37566 12.262,52.46067 -0.0201,36.52969 -8.46248,58.43526 -32.96048,85.50645 -26.54973,29.33841 -52.83274,41.75661 -91.34508,43.15878 -22.36944,0.81444 -32.37724,-0.37121 -44.52998,-5.27545 z m 77.99365,-5.77449 c 31.19963,-10.02589 60.03794,-36.88387 75.56625,-70.37711 7.46689,-16.10547 9.11145,-24.41781 9.18878,-46.44428 0.0829,-23.66508 -1.19942,-29.4557 -10.87833,-49.11642 C 471.39035,78.817746 434.4374,53.773977 390.16081,51.651024 c -40.22827,-1.928825 -68.45432,7.907458 -92.76767,32.327872 -28.92704,29.054414 -35.26203,44.815504 -35.1871,87.543574 0.0723,41.14175 5.31337,55.32486 29.91182,80.94338 36.27178,37.77599 78.80644,49.29962 125.99632,34.13532 z M 45.032001,247.88955 C -7.6196194,239.62437 -58.293276,192.46406 -74.406819,136.73176 -83.172249,106.41456 -80.084538,65.921521 -66.806216,37.055121 -37.514512,-26.623467 30.584235,-63.933581 97.05097,-52.719349 198.93872,-35.52889 253.86981,74.249274 207.35939,167.7288 179.61363,223.49388 109.6657,258.03568 45.032001,247.88955 Z m 55.926659,-7.93362 C 156.02967,226.97476 195.64332,190.72518 211.76528,138.55927 232.49273,71.491296 201.6658,-0.06869361 138.06174,-32.532226 95.10422,-54.457761 50.628466,-54.188508 5.945778,-31.732442 -41.552622,-7.8612959 -73.324746,43.619712 -73.37535,96.793137 -73.449406,174.57479 -8.4826526,242.6237 67.822875,244.69013 c 6.438562,0.17427 21.349667,-1.95602 33.135785,-4.7342 z"
         id="path61"
         inkscape:connector-curvature="0"
         sodipodi:nodetypes="cssscscsccccssscscscccscccsscscsccccscsccscsscsscsscssssscssscssssssssssssscs" />
    </g>
  </g>
</svg>
